<mxfile>
    <diagram id="oQd2fpqO1VpYDoq1eUqB" name="Page-1">
        <mxGraphModel dx="736" dy="331" grid="1" gridSize="10" guides="1" tooltips="1" connect="1" arrows="1" fold="1" page="1" pageScale="1" pageWidth="827" pageHeight="1169" math="0" shadow="0">
            <root>
                <mxCell id="0"/>
                <mxCell id="1" parent="0"/>
                <mxCell id="2Vp2U2qTKe_w5Zzt-_7P-1" value="Hotel" style="swimlane;" parent="1" vertex="1">
                    <mxGeometry x="40" y="40" width="220" height="260" as="geometry"/>
                </mxCell>
                <mxCell id="2Vp2U2qTKe_w5Zzt-_7P-4" value="Long hotelId;" style="text;html=1;strokeColor=none;fillColor=none;align=center;verticalAlign=middle;whiteSpace=wrap;rounded=0;" parent="2Vp2U2qTKe_w5Zzt-_7P-1" vertex="1">
                    <mxGeometry x="30" y="30" width="140" height="30" as="geometry"/>
                </mxCell>
                <mxCell id="2Vp2U2qTKe_w5Zzt-_7P-25" value="&lt;br&gt;String name;" style="text;html=1;strokeColor=none;fillColor=none;align=center;verticalAlign=middle;whiteSpace=wrap;rounded=0;" parent="2Vp2U2qTKe_w5Zzt-_7P-1" vertex="1">
                    <mxGeometry x="50" y="60" width="100" height="10" as="geometry"/>
                </mxCell>
                <mxCell id="2Vp2U2qTKe_w5Zzt-_7P-26" value="&lt;br&gt;String city;" style="text;html=1;strokeColor=none;fillColor=none;align=center;verticalAlign=middle;whiteSpace=wrap;rounded=0;" parent="2Vp2U2qTKe_w5Zzt-_7P-1" vertex="1">
                    <mxGeometry x="57.5" y="90" width="85" height="20" as="geometry"/>
                </mxCell>
                <mxCell id="2Vp2U2qTKe_w5Zzt-_7P-28" value="&lt;br&gt;int star;" style="text;html=1;strokeColor=none;fillColor=none;align=center;verticalAlign=middle;whiteSpace=wrap;rounded=0;" parent="2Vp2U2qTKe_w5Zzt-_7P-1" vertex="1">
                    <mxGeometry x="65" y="140" width="70" height="20" as="geometry"/>
                </mxCell>
                <mxCell id="2Vp2U2qTKe_w5Zzt-_7P-31" style="edgeStyle=orthogonalEdgeStyle;rounded=0;orthogonalLoop=1;jettySize=auto;html=1;" parent="2Vp2U2qTKe_w5Zzt-_7P-1" edge="1" target="2Vp2U2qTKe_w5Zzt-_7P-20">
                    <mxGeometry relative="1" as="geometry">
                        <mxPoint x="190" y="250" as="targetPoint"/>
                        <mxPoint x="142.5" y="40" as="sourcePoint"/>
                        <Array as="points">
                            <mxPoint x="190" y="40"/>
                            <mxPoint x="190" y="190"/>
                            <mxPoint x="143" y="190"/>
                        </Array>
                    </mxGeometry>
                </mxCell>
                <mxCell id="2Vp2U2qTKe_w5Zzt-_7P-5" value="Rooms" style="swimlane;" parent="1" vertex="1">
                    <mxGeometry x="314" y="90" width="200" height="200" as="geometry"/>
                </mxCell>
                <mxCell id="2Vp2U2qTKe_w5Zzt-_7P-6" value="long roomId;" style="text;html=1;strokeColor=none;fillColor=none;align=center;verticalAlign=middle;whiteSpace=wrap;rounded=0;" parent="2Vp2U2qTKe_w5Zzt-_7P-5" vertex="1">
                    <mxGeometry x="46" y="30" width="124" height="20" as="geometry"/>
                </mxCell>
                <mxCell id="2Vp2U2qTKe_w5Zzt-_7P-14" value="int capacity;" style="text;html=1;strokeColor=none;fillColor=none;align=center;verticalAlign=middle;whiteSpace=wrap;rounded=0;" parent="2Vp2U2qTKe_w5Zzt-_7P-5" vertex="1">
                    <mxGeometry x="56" y="90" width="104" height="20" as="geometry"/>
                </mxCell>
                <mxCell id="2Vp2U2qTKe_w5Zzt-_7P-15" value="int price;" style="text;html=1;strokeColor=none;fillColor=none;align=center;verticalAlign=middle;whiteSpace=wrap;rounded=0;" parent="2Vp2U2qTKe_w5Zzt-_7P-5" vertex="1">
                    <mxGeometry x="53" y="120" width="94" height="30" as="geometry"/>
                </mxCell>
                <mxCell id="2Vp2U2qTKe_w5Zzt-_7P-16" value="&lt;br&gt;boolean availability;" style="text;html=1;strokeColor=none;fillColor=none;align=center;verticalAlign=middle;whiteSpace=wrap;rounded=0;" parent="2Vp2U2qTKe_w5Zzt-_7P-5" vertex="1">
                    <mxGeometry x="63" y="150" width="90" height="30" as="geometry"/>
                </mxCell>
                <mxCell id="2" value="long hotelId;" style="text;html=1;strokeColor=none;fillColor=none;align=center;verticalAlign=middle;whiteSpace=wrap;rounded=0;" vertex="1" parent="2Vp2U2qTKe_w5Zzt-_7P-5">
                    <mxGeometry x="46" y="70" width="124" height="20" as="geometry"/>
                </mxCell>
                <mxCell id="2Vp2U2qTKe_w5Zzt-_7P-7" value="Reservation" style="swimlane;" parent="1" vertex="1">
                    <mxGeometry x="570" y="90" width="200" height="200" as="geometry"/>
                </mxCell>
                <mxCell id="2Vp2U2qTKe_w5Zzt-_7P-8" value="long Reservation_id" style="text;html=1;strokeColor=none;fillColor=none;align=center;verticalAlign=middle;whiteSpace=wrap;rounded=0;" parent="2Vp2U2qTKe_w5Zzt-_7P-7" vertex="1">
                    <mxGeometry x="50" y="50" width="110" height="30" as="geometry"/>
                </mxCell>
                <mxCell id="2Vp2U2qTKe_w5Zzt-_7P-9" value="long roomId" style="text;html=1;strokeColor=none;fillColor=none;align=center;verticalAlign=middle;whiteSpace=wrap;rounded=0;" parent="2Vp2U2qTKe_w5Zzt-_7P-7" vertex="1">
                    <mxGeometry x="40" y="80" width="110" height="20" as="geometry"/>
                </mxCell>
                <mxCell id="2Vp2U2qTKe_w5Zzt-_7P-10" value="long userId" style="text;html=1;strokeColor=none;fillColor=none;align=center;verticalAlign=middle;whiteSpace=wrap;rounded=0;" parent="2Vp2U2qTKe_w5Zzt-_7P-7" vertex="1">
                    <mxGeometry x="50" y="110" width="90" height="20" as="geometry"/>
                </mxCell>
                <mxCell id="2Vp2U2qTKe_w5Zzt-_7P-11" value="LocalDate checkIn" style="text;html=1;strokeColor=none;fillColor=none;align=center;verticalAlign=middle;whiteSpace=wrap;rounded=0;" parent="2Vp2U2qTKe_w5Zzt-_7P-7" vertex="1">
                    <mxGeometry x="50" y="140" width="120" height="20" as="geometry"/>
                </mxCell>
                <mxCell id="2Vp2U2qTKe_w5Zzt-_7P-12" value="LocalDate checkout" style="text;html=1;strokeColor=none;fillColor=none;align=center;verticalAlign=middle;whiteSpace=wrap;rounded=0;" parent="2Vp2U2qTKe_w5Zzt-_7P-7" vertex="1">
                    <mxGeometry x="50" y="170" width="120" height="20" as="geometry"/>
                </mxCell>
                <mxCell id="2Vp2U2qTKe_w5Zzt-_7P-18" style="edgeStyle=orthogonalEdgeStyle;rounded=0;orthogonalLoop=1;jettySize=auto;html=1;entryX=0.164;entryY=0.95;entryDx=0;entryDy=0;entryPerimeter=0;" parent="1" source="2Vp2U2qTKe_w5Zzt-_7P-6" target="2Vp2U2qTKe_w5Zzt-_7P-9" edge="1">
                    <mxGeometry relative="1" as="geometry"/>
                </mxCell>
                <mxCell id="2Vp2U2qTKe_w5Zzt-_7P-19" value="Facility" style="swimlane;" parent="1" vertex="1">
                    <mxGeometry x="40" y="330" width="200" height="220" as="geometry"/>
                </mxCell>
                <mxCell id="2Vp2U2qTKe_w5Zzt-_7P-20" value="long hotelId;" style="text;html=1;strokeColor=none;fillColor=none;align=center;verticalAlign=middle;whiteSpace=wrap;rounded=0;" parent="2Vp2U2qTKe_w5Zzt-_7P-19" vertex="1">
                    <mxGeometry x="30" y="50" width="124" height="20" as="geometry"/>
                </mxCell>
                <mxCell id="2Vp2U2qTKe_w5Zzt-_7P-21" value="boolean ac" style="text;html=1;strokeColor=none;fillColor=none;align=center;verticalAlign=middle;whiteSpace=wrap;rounded=0;" parent="2Vp2U2qTKe_w5Zzt-_7P-19" vertex="1">
                    <mxGeometry x="48" y="80" width="104" height="20" as="geometry"/>
                </mxCell>
                <mxCell id="2Vp2U2qTKe_w5Zzt-_7P-22" value="boolean wifi" style="text;html=1;strokeColor=none;fillColor=none;align=center;verticalAlign=middle;whiteSpace=wrap;rounded=0;" parent="2Vp2U2qTKe_w5Zzt-_7P-19" vertex="1">
                    <mxGeometry x="48" y="110" width="94" height="30" as="geometry"/>
                </mxCell>
                <mxCell id="2Vp2U2qTKe_w5Zzt-_7P-23" value="boolean meals" style="text;html=1;strokeColor=none;fillColor=none;align=center;verticalAlign=middle;whiteSpace=wrap;rounded=0;" parent="2Vp2U2qTKe_w5Zzt-_7P-19" vertex="1">
                    <mxGeometry x="52" y="140" width="90" height="30" as="geometry"/>
                </mxCell>
                <mxCell id="2Vp2U2qTKe_w5Zzt-_7P-24" value="boolean restaurant" style="text;html=1;strokeColor=none;fillColor=none;align=center;verticalAlign=middle;whiteSpace=wrap;rounded=0;" parent="2Vp2U2qTKe_w5Zzt-_7P-19" vertex="1">
                    <mxGeometry x="48" y="170" width="90" height="30" as="geometry"/>
                </mxCell>
                <mxCell id="2Vp2U2qTKe_w5Zzt-_7P-33" value="Ratings" style="swimlane;" parent="1" vertex="1">
                    <mxGeometry x="320" y="330" width="210" height="170" as="geometry"/>
                </mxCell>
                <mxCell id="2Vp2U2qTKe_w5Zzt-_7P-37" value="String review" style="text;html=1;strokeColor=none;fillColor=none;align=center;verticalAlign=middle;whiteSpace=wrap;rounded=0;" parent="2Vp2U2qTKe_w5Zzt-_7P-33" vertex="1">
                    <mxGeometry x="62.5" y="130" width="90" height="20" as="geometry"/>
                </mxCell>
                <mxCell id="2Vp2U2qTKe_w5Zzt-_7P-36" value="int rating" style="text;html=1;strokeColor=none;fillColor=none;align=center;verticalAlign=middle;whiteSpace=wrap;rounded=0;" parent="2Vp2U2qTKe_w5Zzt-_7P-33" vertex="1">
                    <mxGeometry x="70" y="100" width="65" height="20" as="geometry"/>
                </mxCell>
                <mxCell id="2Vp2U2qTKe_w5Zzt-_7P-35" value="long userId" style="text;html=1;strokeColor=none;fillColor=none;align=center;verticalAlign=middle;whiteSpace=wrap;rounded=0;" parent="2Vp2U2qTKe_w5Zzt-_7P-33" vertex="1">
                    <mxGeometry x="70" y="70" width="75" height="20" as="geometry"/>
                </mxCell>
                <mxCell id="2Vp2U2qTKe_w5Zzt-_7P-34" value="long hotelId" style="text;html=1;strokeColor=none;fillColor=none;align=center;verticalAlign=middle;whiteSpace=wrap;rounded=0;" parent="2Vp2U2qTKe_w5Zzt-_7P-33" vertex="1">
                    <mxGeometry x="70" y="40" width="75" height="20" as="geometry"/>
                </mxCell>
                <mxCell id="2Vp2U2qTKe_w5Zzt-_7P-40" style="edgeStyle=orthogonalEdgeStyle;rounded=0;orthogonalLoop=1;jettySize=auto;html=1;entryX=0;entryY=0.75;entryDx=0;entryDy=0;" parent="1" target="2Vp2U2qTKe_w5Zzt-_7P-34" edge="1">
                    <mxGeometry relative="1" as="geometry">
                        <mxPoint x="175" y="270" as="sourcePoint"/>
                    </mxGeometry>
                </mxCell>
                <mxCell id="2Vp2U2qTKe_w5Zzt-_7P-41" value="User" style="swimlane;" parent="1" vertex="1">
                    <mxGeometry x="590" y="320" width="200" height="200" as="geometry"/>
                </mxCell>
                <mxCell id="2Vp2U2qTKe_w5Zzt-_7P-47" value="String city;" style="text;html=1;strokeColor=none;fillColor=none;align=center;verticalAlign=middle;whiteSpace=wrap;rounded=0;" parent="2Vp2U2qTKe_w5Zzt-_7P-41" vertex="1">
                    <mxGeometry x="57.5" y="130" width="75" height="20" as="geometry"/>
                </mxCell>
                <mxCell id="2Vp2U2qTKe_w5Zzt-_7P-48" value="long userId" style="text;html=1;strokeColor=none;fillColor=none;align=center;verticalAlign=middle;whiteSpace=wrap;rounded=0;" parent="2Vp2U2qTKe_w5Zzt-_7P-41" vertex="1">
                    <mxGeometry x="55" y="40" width="75" height="20" as="geometry"/>
                </mxCell>
                <mxCell id="2Vp2U2qTKe_w5Zzt-_7P-49" value="String name" style="text;html=1;strokeColor=none;fillColor=none;align=center;verticalAlign=middle;whiteSpace=wrap;rounded=0;" parent="2Vp2U2qTKe_w5Zzt-_7P-41" vertex="1">
                    <mxGeometry x="47.5" y="70" width="95" height="20" as="geometry"/>
                </mxCell>
                <mxCell id="2Vp2U2qTKe_w5Zzt-_7P-50" value="char gender;" style="text;html=1;strokeColor=none;fillColor=none;align=center;verticalAlign=middle;whiteSpace=wrap;rounded=0;" parent="2Vp2U2qTKe_w5Zzt-_7P-41" vertex="1">
                    <mxGeometry x="40" y="100" width="90" height="20" as="geometry"/>
                </mxCell>
                <mxCell id="2Vp2U2qTKe_w5Zzt-_7P-51" style="edgeStyle=orthogonalEdgeStyle;rounded=0;orthogonalLoop=1;jettySize=auto;html=1;entryX=0;entryY=0.25;entryDx=0;entryDy=0;" parent="1" source="2Vp2U2qTKe_w5Zzt-_7P-35" target="2Vp2U2qTKe_w5Zzt-_7P-48" edge="1">
                    <mxGeometry relative="1" as="geometry"/>
                </mxCell>
                <mxCell id="4" style="edgeStyle=orthogonalEdgeStyle;rounded=0;orthogonalLoop=1;jettySize=auto;html=1;" edge="1" parent="1" source="2">
                    <mxGeometry relative="1" as="geometry">
                        <mxPoint x="240" y="170" as="targetPoint"/>
                    </mxGeometry>
                </mxCell>
            </root>
        </mxGraphModel>
    </diagram>
</mxfile>